<svg id="svg" version="1.1" xmlns="http://www.w3.org/2000/svg" width="400"
     height="400" viewBox="0, 0, 400,400">
  <g id="svgg">
    <path id="path0"
          d="M173.400 152.448 C 149.713 164.598,138.791 191.912,147.419 217.428 C 153.064 234.124,167.852 247.472,185.200 251.530 C 186.190 251.761,187.896 252.155,188.991 252.404 C 191.518 252.979,202.987 252.996,205.099 252.427 C 208.181 251.597,214.365 240.520,215.969 232.958 C 220.004 213.922,209.275 196.988,190.362 192.541 C 186.771 191.697,176.196 191.581,172.800 192.349 C 168.485 193.324,168.800 193.360,168.800 191.893 C 168.800 190.552,170.630 180.858,171.989 175.000 C 172.397 173.240,173.126 169.640,173.610 167.000 C 174.093 164.360,175.009 159.886,175.644 157.057 C 177.196 150.150,177.333 150.431,173.400 152.448 M234.200 162.000 C 235.059 162.880,235.852 163.600,235.962 163.600 C 236.072 163.600,235.459 162.880,234.600 162.000 C 233.741 161.120,232.948 160.400,232.838 160.400 C 232.728 160.400,233.341 161.120,234.200 162.000 M190.900 178.676 C 191.285 178.776,191.915 178.776,192.300 178.676 C 192.685 178.575,192.370 178.493,191.600 178.493 C 190.830 178.493,190.515 178.575,190.900 178.676 M215.600 187.325 C 215.600 187.394,216.185 187.979,216.900 188.625 L 218.200 189.800 217.025 188.500 C 215.930 187.288,215.600 187.016,215.600 187.325 M250.137 199.800 C 250.139 201.560,250.209 202.230,250.293 201.289 C 250.378 200.349,250.377 198.909,250.291 198.089 C 250.205 197.270,250.136 198.040,250.137 199.800 M229.340 215.200 C 229.340 217.070,229.409 217.835,229.493 216.900 C 229.577 215.965,229.577 214.435,229.493 213.500 C 229.409 212.565,229.340 213.330,229.340 215.200 "
          stroke="none" fill="#f09394" fill-rule="evenodd"></path>
    <path id="path1"
          d="M192.400 146.994 C 183.404 148.265,183.259 148.338,182.776 151.837 C 182.566 153.357,181.841 157.840,181.165 161.800 C 179.621 170.834,178.800 176.266,178.800 177.445 C 178.800 178.359,178.804 178.360,185.116 178.366 C 205.808 178.385,219.229 185.981,226.526 201.800 C 231.514 212.616,230.208 225.643,222.483 242.105 C 219.980 247.440,219.988 247.628,222.660 246.263 C 232.442 241.265,242.733 229.444,246.575 218.793 C 249.953 209.429,251.050 196.120,249.046 188.800 C 242.367 164.396,226.300 150.120,202.000 146.997 C 196.844 146.335,197.068 146.335,192.400 146.994 "
          stroke="none" fill="#f3c394" fill-rule="evenodd"></path>
    <path id="path2"
          d="M203.118 133.416 C 202.992 133.541,199.405 133.703,195.145 133.775 C 190.713 133.851,186.918 134.098,186.274 134.353 C 185.655 134.599,184.707 134.800,184.169 134.800 C 183.630 134.800,182.877 134.961,182.495 135.158 C 181.907 135.460,178.945 136.163,176.800 136.510 C 176.470 136.563,175.210 137.080,174.000 137.659 C 172.790 138.238,171.008 139.011,170.039 139.377 C 169.071 139.743,167.541 140.457,166.639 140.965 C 165.738 141.472,164.281 142.294,163.402 142.792 C 162.523 143.289,161.083 144.220,160.202 144.860 C 159.321 145.500,157.665 146.699,156.521 147.526 C 155.378 148.352,154.118 149.388,153.721 149.828 C 153.325 150.268,152.145 151.319,151.100 152.162 C 150.055 153.006,149.200 153.841,149.200 154.017 C 149.200 154.194,148.513 155.027,147.673 155.869 C 146.833 156.711,145.717 158.030,145.192 158.800 C 144.668 159.570,144.128 160.290,143.993 160.400 C 143.514 160.790,141.200 164.350,141.200 164.697 C 141.200 164.891,140.885 165.398,140.500 165.825 C 139.882 166.509,137.713 170.730,135.889 174.800 C 134.793 177.245,134.012 179.765,134.006 180.876 C 134.003 181.468,133.820 182.064,133.600 182.200 C 133.380 182.336,133.200 182.966,133.200 183.600 C 133.200 184.234,133.040 184.852,132.844 184.973 C 130.876 186.189,130.874 213.810,132.842 215.026 C 133.039 215.148,133.200 215.689,133.200 216.229 C 133.200 216.769,133.368 217.523,133.573 217.905 C 133.779 218.287,134.152 219.500,134.403 220.600 C 135.078 223.562,138.870 231.650,141.284 235.278 C 142.118 236.531,142.800 237.670,142.800 237.810 C 142.800 238.074,145.704 241.521,148.800 244.932 C 151.593 248.009,153.645 249.929,156.386 252.031 C 157.368 252.784,158.527 253.715,158.962 254.100 C 159.396 254.485,159.928 254.800,160.144 254.800 C 160.360 254.800,160.852 255.085,161.237 255.433 C 162.068 256.185,164.314 257.526,165.300 257.858 C 165.685 257.987,166.000 258.224,166.000 258.383 C 166.000 258.542,166.720 258.910,167.600 259.200 C 168.480 259.490,169.200 259.879,169.200 260.064 C 169.200 260.249,169.481 260.400,169.825 260.400 C 170.169 260.400,171.564 260.916,172.925 261.546 C 174.286 262.176,176.210 262.908,177.200 263.173 C 178.190 263.438,179.553 263.822,180.228 264.027 C 180.904 264.232,181.928 264.400,182.505 264.400 C 183.081 264.400,183.664 264.580,183.800 264.800 C 183.936 265.020,184.721 265.200,185.544 265.200 C 186.367 265.200,187.219 265.379,187.438 265.598 C 187.984 266.144,205.120 266.163,206.551 265.618 C 207.157 265.388,208.260 265.200,209.002 265.200 C 209.745 265.200,210.464 265.020,210.600 264.800 C 210.736 264.580,211.456 264.400,212.200 264.400 C 212.944 264.400,213.645 264.250,213.758 264.068 C 213.871 263.885,215.232 263.496,216.782 263.203 C 218.332 262.911,219.600 262.521,219.600 262.336 C 219.600 262.151,220.050 262.000,220.600 262.000 C 221.150 262.000,221.600 261.820,221.600 261.600 C 221.600 261.380,221.924 261.200,222.320 261.200 C 222.716 261.200,223.232 261.008,223.468 260.772 C 223.703 260.537,224.144 260.295,224.448 260.234 C 225.631 259.996,227.489 259.086,229.468 257.772 C 230.605 257.017,231.653 256.400,231.796 256.400 C 232.265 256.400,236.389 253.454,237.816 252.100 C 238.106 251.825,238.491 251.596,238.671 251.592 C 238.852 251.587,240.020 250.612,241.266 249.424 C 242.512 248.237,243.633 247.366,243.757 247.490 C 243.880 247.613,244.110 247.374,244.267 246.957 C 244.425 246.541,245.239 245.518,246.077 244.685 C 246.915 243.851,247.600 243.086,247.600 242.985 C 247.600 242.883,247.915 242.456,248.300 242.036 C 250.621 239.505,252.192 237.437,252.989 235.862 C 253.488 234.876,254.252 233.558,254.685 232.934 C 255.119 232.310,255.727 231.215,256.035 230.500 C 256.343 229.785,256.731 229.200,256.898 229.200 C 257.064 229.200,257.200 228.875,257.200 228.479 C 257.200 228.082,257.655 226.843,258.212 225.726 C 259.145 223.854,260.564 219.599,261.055 217.200 C 261.168 216.650,261.414 215.840,261.603 215.400 C 261.791 214.960,262.056 213.970,262.191 213.200 C 262.326 212.430,262.608 210.810,262.819 209.600 C 263.863 203.599,263.638 191.773,262.395 187.400 C 261.541 184.393,261.175 182.934,261.069 182.110 C 261.006 181.621,260.829 181.096,260.677 180.944 C 260.525 180.791,260.400 180.244,260.400 179.728 C 260.400 179.212,260.241 178.477,260.047 178.095 C 259.852 177.713,259.515 176.950,259.297 176.400 C 255.968 167.992,250.500 159.400,244.914 153.800 C 241.868 150.746,237.607 146.800,237.357 146.800 C 237.251 146.800,235.830 145.900,234.200 144.800 C 232.570 143.700,231.156 142.800,231.059 142.800 C 230.961 142.800,229.697 142.080,228.248 141.200 C 226.800 140.320,225.341 139.600,225.007 139.600 C 224.673 139.600,224.400 139.450,224.400 139.267 C 224.400 139.083,224.133 138.933,223.807 138.933 C 223.481 138.933,222.356 138.521,221.307 138.016 C 218.401 136.618,216.187 135.895,213.400 135.434 C 212.740 135.325,211.300 135.032,210.200 134.784 C 209.100 134.535,207.210 134.238,206.000 134.124 C 204.790 134.010,203.698 133.752,203.573 133.552 C 203.448 133.352,203.243 133.291,203.118 133.416 M205.800 146.809 C 248.993 154.049,265.956 206.887,235.015 237.813 C 229.267 243.559,220.117 249.484,219.224 248.039 C 218.979 247.642,218.864 247.656,218.692 248.103 C 218.384 248.906,215.979 249.971,212.007 251.064 C 208.115 252.135,207.436 252.206,207.835 251.500 C 207.991 251.225,207.743 251.385,207.285 251.855 C 206.111 253.060,200.699 253.777,195.005 253.480 C 148.262 251.046,126.650 194.803,159.769 161.782 C 166.405 155.165,177.185 148.562,177.206 151.100 C 177.210 151.637,177.327 151.579,177.706 150.853 C 178.345 149.628,181.539 148.461,182.049 149.266 C 182.308 149.674,182.389 149.632,182.394 149.091 C 182.415 146.652,196.606 145.268,205.800 146.809 M217.200 189.725 C 217.200 189.794,217.785 190.379,218.500 191.025 L 219.800 192.200 218.625 190.900 C 217.530 189.688,217.200 189.416,217.200 189.725 "
          stroke="none" fill="#947bab" fill-rule="evenodd"></path>
    <path id="path3"
          d="M190.000 133.500 C 190.000 133.859,202.722 133.811,203.083 133.450 C 203.221 133.313,200.333 133.200,196.667 133.200 C 193.000 133.200,190.000 133.335,190.000 133.500 M208.400 134.400 C 209.188 134.909,210.115 134.909,209.800 134.400 C 209.664 134.180,209.158 134.003,208.676 134.006 C 207.964 134.011,207.912 134.085,208.400 134.400 M212.000 135.200 C 212.776 135.701,213.200 135.701,213.200 135.200 C 213.200 134.980,212.795 134.803,212.300 134.806 C 211.572 134.811,211.515 134.886,212.000 135.200 M176.984 136.027 C 176.585 136.671,176.865 136.695,178.400 136.146 L 179.800 135.645 178.524 135.623 C 177.822 135.610,177.129 135.792,176.984 136.027 M216.000 136.000 C 216.788 136.509,217.715 136.509,217.400 136.000 C 217.264 135.780,216.758 135.603,216.276 135.606 C 215.564 135.611,215.512 135.685,216.000 136.000 M169.000 139.200 C 168.864 139.420,168.448 139.606,168.076 139.613 C 167.335 139.627,165.750 140.683,166.038 140.972 C 166.137 141.070,167.294 140.626,168.609 139.985 C 170.154 139.231,170.690 138.815,170.124 138.809 C 169.642 138.804,169.136 138.980,169.000 139.200 M226.082 139.815 C 226.531 140.265,230.800 142.732,230.800 142.542 C 230.800 141.915,227.276 139.600,226.321 139.600 C 226.071 139.600,225.963 139.697,226.082 139.815 M164.229 141.809 C 163.805 142.129,163.538 142.471,163.635 142.569 C 163.732 142.666,164.259 142.402,164.806 141.982 C 165.353 141.561,165.620 141.220,165.400 141.222 C 165.180 141.224,164.653 141.488,164.229 141.809 M160.700 143.747 C 159.080 145.140,159.362 145.369,161.200 144.153 C 162.080 143.570,162.800 143.028,162.800 142.947 C 162.800 142.491,161.651 142.929,160.700 143.747 M231.600 142.947 C 231.600 143.028,232.320 143.570,233.200 144.153 C 235.038 145.369,235.320 145.140,233.700 143.747 C 232.749 142.929,231.600 142.491,231.600 142.947 M157.200 146.400 C 156.430 147.059,155.653 147.599,155.474 147.599 C 155.295 147.600,154.271 148.500,153.200 149.600 C 152.129 150.700,151.081 151.600,150.872 151.600 C 150.663 151.600,150.170 152.095,149.775 152.700 C 148.995 153.898,151.774 151.842,154.052 149.536 C 154.631 148.950,155.803 148.029,156.658 147.490 C 158.282 146.465,159.548 145.199,158.949 145.201 C 158.757 145.201,157.970 145.741,157.200 146.400 M235.994 145.982 C 236.541 146.402,237.057 146.676,237.142 146.592 C 237.404 146.329,236.086 145.200,235.529 145.209 C 235.238 145.214,235.447 145.561,235.994 145.982 M238.000 147.005 C 238.000 147.171,239.029 148.228,240.286 149.354 C 241.543 150.479,243.162 152.030,243.884 152.800 C 244.606 153.570,245.197 153.986,245.198 153.725 C 245.199 153.464,244.653 152.744,243.984 152.125 C 243.315 151.506,242.005 150.280,241.072 149.400 C 238.833 147.286,238.000 146.637,238.000 147.005 M179.800 149.348 C 177.461 150.229,177.569 149.928,175.189 162.152 C 174.542 165.479,173.647 169.820,173.202 171.800 C 172.757 173.780,172.042 177.290,171.613 179.600 C 170.886 183.524,170.412 185.897,169.577 189.800 C 168.937 192.794,168.883 192.736,171.700 192.104 C 206.685 184.256,229.373 217.106,210.168 247.800 C 207.294 252.393,207.271 252.340,211.677 251.167 C 217.802 249.537,218.027 249.362,220.534 244.272 C 229.645 225.774,231.049 212.636,225.170 200.903 C 217.785 186.167,206.515 179.917,186.265 179.328 C 180.750 179.167,177.874 178.935,177.764 178.642 C 177.673 178.399,178.052 175.590,178.608 172.400 C 179.441 167.620,181.924 151.643,182.058 150.200 C 182.198 148.691,181.870 148.567,179.800 149.348 M147.261 155.455 C 146.525 156.225,146.006 156.939,146.108 157.041 C 146.283 157.217,149.200 154.499,149.200 154.160 C 149.200 153.707,148.460 154.201,147.261 155.455 M245.600 154.126 C 245.600 154.295,245.978 154.831,246.441 155.317 C 246.903 155.803,247.752 156.830,248.328 157.600 C 250.294 160.231,251.600 161.628,251.600 161.102 C 251.600 160.813,251.240 160.317,250.800 160.000 C 250.360 159.683,250.000 159.226,250.000 158.985 C 250.000 158.743,249.010 157.482,247.800 156.182 C 246.590 154.882,245.600 153.957,245.600 154.126 M143.705 159.908 C 142.654 161.191,142.476 162.112,143.500 160.970 C 144.849 159.466,145.295 158.800,144.949 158.808 C 144.757 158.812,144.197 159.307,143.705 159.908 M141.669 162.839 C 140.910 164.054,141.366 164.216,142.155 163.012 C 142.520 162.456,142.678 162.000,142.505 162.000 C 142.333 162.000,141.957 162.378,141.669 162.839 M252.273 163.055 C 252.653 163.635,253.034 163.899,253.120 163.641 C 253.295 163.115,252.495 162.000,251.942 162.000 C 251.744 162.000,251.893 162.475,252.273 163.055 M140.138 165.403 C 139.883 165.951,139.773 166.400,139.894 166.400 C 140.175 166.400,141.171 165.092,141.187 164.700 C 141.215 164.036,140.572 164.467,140.138 165.403 M254.721 166.843 C 255.519 168.187,256.233 169.100,256.309 168.874 C 256.458 168.426,253.970 164.419,253.536 164.407 C 253.390 164.403,253.924 165.499,254.721 166.843 M138.000 169.176 C 138.000 169.603,137.820 170.064,137.600 170.200 C 137.380 170.336,137.208 170.752,137.217 171.124 C 137.227 171.524,137.546 171.229,138.000 170.400 C 138.881 168.790,138.959 168.400,138.400 168.400 C 138.180 168.400,138.000 168.749,138.000 169.176 M135.892 173.442 C 135.731 173.602,135.600 174.009,135.600 174.347 C 135.600 174.797,135.718 174.842,136.045 174.515 C 136.290 174.270,136.421 173.863,136.337 173.610 C 136.252 173.357,136.052 173.281,135.892 173.442 M258.800 175.376 C 258.800 175.693,258.980 176.064,259.200 176.200 C 259.420 176.336,259.600 176.077,259.600 175.624 C 259.600 175.171,259.420 174.800,259.200 174.800 C 258.980 174.800,258.800 175.059,258.800 175.376 M259.600 177.353 C 259.600 177.683,259.780 178.064,260.000 178.200 C 260.220 178.336,260.400 178.177,260.400 177.847 C 260.400 177.517,260.220 177.136,260.000 177.000 C 259.780 176.864,259.600 177.023,259.600 177.353 M134.292 177.442 C 134.131 177.602,134.005 178.108,134.012 178.567 C 134.023 179.336,134.056 179.345,134.440 178.685 C 134.888 177.916,134.773 176.960,134.292 177.442 M260.400 179.753 C 260.400 180.303,260.580 180.864,260.800 181.000 C 261.026 181.140,261.200 180.812,261.200 180.247 C 261.200 179.697,261.020 179.136,260.800 179.000 C 260.574 178.860,260.400 179.188,260.400 179.753 M262.006 186.476 C 262.018 187.481,262.787 188.308,262.794 187.324 C 262.797 186.842,262.620 186.336,262.400 186.200 C 262.180 186.064,262.003 186.188,262.006 186.476 M263.109 192.300 C 263.339 194.622,263.534 194.791,263.568 192.700 C 263.586 191.655,263.456 190.800,263.280 190.800 C 263.104 190.800,263.028 191.475,263.109 192.300 M131.067 191.867 C 130.920 192.013,130.829 194.668,130.864 197.767 L 130.928 203.400 131.212 197.600 C 131.508 191.569,131.504 191.429,131.067 191.867 M130.840 205.476 C 130.818 206.618,130.980 207.664,131.200 207.800 C 131.672 208.092,131.672 205.875,131.200 204.400 C 130.947 203.610,130.871 203.836,130.840 205.476 M263.126 207.192 C 262.860 208.929,262.960 209.573,263.425 209.108 C 263.549 208.985,263.594 208.100,263.525 207.142 L 263.400 205.400 263.126 207.192 M262.279 212.157 C 262.115 212.574,262.075 213.009,262.191 213.124 C 262.555 213.489,262.876 212.891,262.724 212.131 C 262.583 211.435,262.562 211.436,262.279 212.157 M260.279 219.973 C 259.490 222.499,259.460 222.800,260.000 222.800 C 260.220 222.800,260.400 222.428,260.400 221.974 C 260.400 221.519,260.591 220.790,260.825 220.353 C 261.059 219.916,261.184 219.163,261.104 218.679 C 260.999 218.050,260.765 218.417,260.279 219.973 M134.000 221.000 C 134.000 221.550,134.155 222.000,134.345 222.000 C 134.534 222.000,134.603 221.550,134.498 221.000 C 134.393 220.450,134.238 220.000,134.153 220.000 C 134.069 220.000,134.000 220.450,134.000 221.000 M134.806 223.500 C 134.803 223.995,134.980 224.400,135.200 224.400 C 135.701 224.400,135.701 223.976,135.200 223.200 C 134.886 222.715,134.811 222.772,134.806 223.500 M258.742 224.579 C 258.387 225.360,258.225 226.000,258.381 226.000 C 258.811 226.000,259.714 224.143,259.539 223.618 C 259.455 223.365,259.096 223.797,258.742 224.579 M138.000 230.800 C 138.000 231.240,138.136 231.600,138.302 231.600 C 138.469 231.600,138.844 232.140,139.136 232.800 C 139.428 233.460,139.814 234.000,139.994 234.000 C 140.174 234.000,139.873 233.100,139.325 232.000 C 138.232 229.807,138.000 229.597,138.000 230.800 M254.673 232.945 C 253.913 234.105,254.116 234.341,255.061 233.396 C 255.393 233.064,255.597 232.590,255.514 232.342 C 255.431 232.094,255.053 232.365,254.673 232.945 M141.370 236.000 C 141.496 236.330,141.711 236.915,141.846 237.300 C 141.982 237.685,142.252 238.000,142.447 238.000 C 143.006 238.000,142.848 237.480,141.962 236.400 C 141.510 235.850,141.244 235.670,141.370 236.000 M143.613 239.414 C 143.606 239.642,144.315 240.632,145.189 241.614 C 146.062 242.597,146.782 243.582,146.789 243.804 C 146.801 244.252,148.383 245.351,148.642 245.092 C 148.732 245.001,148.104 244.134,147.246 243.164 C 146.388 242.194,145.222 240.860,144.655 240.200 C 144.089 239.540,143.620 239.187,143.613 239.414 M249.588 240.466 C 249.265 240.942,248.685 241.662,248.300 242.066 C 247.915 242.470,247.600 242.906,247.600 243.036 C 247.600 243.166,247.195 243.600,246.700 244.001 C 246.205 244.403,245.924 244.856,246.076 245.008 C 246.378 245.311,248.400 243.457,248.400 242.878 C 248.400 242.680,248.940 241.954,249.600 241.263 C 250.260 240.572,250.800 239.916,250.800 239.804 C 250.800 239.306,250.126 239.675,249.588 240.466 M149.200 246.046 C 149.200 246.548,151.971 249.200,152.496 249.200 C 152.683 249.200,152.063 248.391,151.118 247.402 C 149.230 245.425,149.200 245.404,149.200 246.046 M241.200 249.472 C 239.990 250.633,238.775 251.587,238.500 251.592 C 238.225 251.596,238.000 251.750,238.000 251.932 C 238.000 252.115,237.550 252.506,237.000 252.800 C 236.450 253.094,236.000 253.485,236.000 253.668 C 236.000 254.267,236.579 254.016,238.000 252.800 C 238.770 252.141,239.532 251.601,239.694 251.601 C 240.116 251.600,243.643 247.912,243.510 247.611 C 243.450 247.473,242.410 248.310,241.200 249.472 M153.200 249.460 C 153.200 249.889,154.534 251.600,154.868 251.600 C 155.074 251.600,155.819 252.139,156.522 252.798 C 157.798 253.994,158.400 254.279,158.400 253.686 C 158.400 253.514,157.905 253.077,157.300 252.716 C 156.695 252.355,155.525 251.436,154.700 250.676 C 153.875 249.915,153.200 249.368,153.200 249.460 M158.800 254.259 C 158.800 254.709,161.204 256.400,161.844 256.400 C 161.983 256.400,161.877 256.134,161.607 255.808 C 161.089 255.184,158.800 253.921,158.800 254.259 M234.081 254.994 C 232.340 256.196,232.158 256.400,232.833 256.400 C 233.440 256.399,235.840 254.501,235.565 254.240 C 235.474 254.154,234.807 254.494,234.081 254.994 M229.599 257.693 C 228.609 258.368,227.170 259.190,226.400 259.518 C 225.591 259.862,225.226 260.194,225.535 260.302 C 225.829 260.405,226.270 260.290,226.515 260.045 C 226.760 259.800,227.284 259.600,227.680 259.600 C 228.076 259.600,228.400 259.420,228.400 259.200 C 228.400 258.980,228.625 258.800,228.900 258.800 C 229.467 258.799,231.818 256.884,231.563 256.630 C 231.472 256.539,230.588 257.017,229.599 257.693 M164.826 258.231 C 165.354 258.868,166.000 258.986,166.000 258.447 C 166.000 258.252,165.630 257.996,165.177 257.878 C 164.502 257.702,164.439 257.765,164.826 258.231 M167.200 259.554 C 168.243 260.418,169.200 260.653,169.200 260.047 C 169.200 259.852,168.885 259.603,168.500 259.492 C 168.115 259.381,167.440 259.164,167.000 259.008 C 166.352 258.779,166.390 258.883,167.200 259.554 M172.400 261.563 C 172.400 261.982,174.348 262.986,174.624 262.709 C 174.748 262.585,174.299 262.208,173.625 261.872 C 172.951 261.536,172.400 261.397,172.400 261.563 M219.600 262.400 C 219.600 262.620,219.859 262.800,220.176 262.800 C 220.493 262.800,220.864 262.620,221.000 262.400 C 221.136 262.180,220.877 262.000,220.424 262.000 C 219.971 262.000,219.600 262.180,219.600 262.400 M175.600 263.200 C 175.600 263.420,176.095 263.597,176.700 263.594 C 177.557 263.589,177.668 263.502,177.200 263.200 C 176.417 262.694,175.600 262.694,175.600 263.200 M215.931 263.348 C 213.676 263.893,212.818 264.591,214.800 264.267 C 217.782 263.779,218.800 263.496,218.800 263.155 C 218.800 262.728,218.371 262.757,215.931 263.348 M178.200 264.000 C 178.336 264.220,179.022 264.397,179.724 264.394 C 180.695 264.389,180.857 264.295,180.400 264.000 C 179.607 263.487,177.883 263.487,178.200 264.000 M206.600 265.600 C 205.886 265.907,205.915 265.947,206.876 265.972 C 207.468 265.987,208.064 265.820,208.200 265.600 C 208.495 265.122,207.711 265.122,206.600 265.600 M192.992 266.387 C 193.308 266.898,201.461 266.948,201.775 266.441 C 201.900 266.237,199.987 266.058,197.367 266.028 C 194.270 265.991,192.821 266.110,192.992 266.387 "
          stroke="none" fill="#7c6494" fill-rule="evenodd"></path>
    <path id="path4"
          d="M188.600 146.827 C 182.128 147.949,182.705 147.329,181.640 154.313 C 181.136 157.613,180.792 160.647,180.874 161.056 C 181.013 161.749,182.038 156.087,182.638 151.307 C 182.957 148.770,183.125 148.616,186.403 147.875 C 220.607 140.136,253.679 169.655,250.008 204.646 C 248.154 222.323,237.455 238.741,222.829 246.353 C 219.499 248.086,219.488 247.997,222.294 242.100 C 224.716 237.011,225.837 234.103,225.504 233.771 C 225.407 233.674,224.827 234.901,224.213 236.498 C 223.600 238.094,222.221 241.149,221.149 243.287 C 217.910 249.747,218.759 249.929,226.928 244.522 C 241.697 234.747,250.823 217.691,250.792 199.923 C 250.734 166.653,220.946 141.221,188.600 146.827 M173.192 151.914 C 131.742 172.881,135.000 232.928,178.523 250.166 C 186.422 253.294,203.318 254.677,206.660 252.469 C 207.959 251.611,212.766 243.451,214.572 239.039 C 215.817 235.994,214.905 237.248,213.373 240.686 C 210.690 246.707,207.030 251.907,205.110 252.424 C 202.989 252.995,191.524 252.981,188.991 252.404 C 187.896 252.155,186.190 251.761,185.200 251.530 C 149.149 243.097,133.043 201.603,153.554 170.000 C 159.046 161.538,176.010 148.400,176.924 151.900 C 177.037 152.331,177.125 152.177,177.154 151.500 C 177.215 150.054,176.780 150.099,173.192 151.914 M176.222 154.222 C 176.072 155.025,176.038 155.772,176.148 155.882 C 176.258 155.992,176.472 155.425,176.622 154.622 C 176.773 153.819,176.806 153.073,176.696 152.963 C 176.586 152.853,176.373 153.419,176.222 154.222 M175.597 156.633 C 175.595 156.835,174.965 160.112,174.197 163.916 C 172.862 170.526,172.586 172.348,172.978 171.955 C 173.399 171.535,176.134 156.801,175.845 156.512 C 175.710 156.377,175.599 156.432,175.597 156.633 M180.219 163.527 C 180.055 164.477,180.017 165.350,180.134 165.468 C 180.426 165.759,180.926 162.973,180.700 162.321 C 180.600 162.035,180.384 162.577,180.219 163.527 M179.598 166.700 C 179.598 166.865,179.228 169.229,178.777 171.954 C 178.326 174.679,178.012 177.379,178.079 177.954 L 178.200 179.000 184.917 179.094 C 205.742 179.385,217.885 185.914,225.291 200.800 C 229.573 209.408,229.939 219.316,226.381 230.346 C 225.453 233.222,225.552 234.130,226.507 231.509 C 230.389 220.856,230.185 209.672,225.953 201.065 C 218.283 185.466,205.239 178.438,183.900 178.408 C 180.875 178.404,178.406 178.265,178.413 178.100 C 178.420 177.935,178.700 176.000,179.035 173.800 C 180.006 167.434,180.120 166.400,179.852 166.400 C 179.713 166.400,179.599 166.535,179.598 166.700 M172.200 174.000 C 172.048 174.691,172.014 175.347,172.124 175.457 C 172.234 175.567,172.448 175.091,172.600 174.400 C 172.752 173.709,172.786 173.053,172.676 172.943 C 172.566 172.833,172.352 173.309,172.200 174.000 M171.598 176.233 C 171.596 176.435,170.966 179.735,170.198 183.566 C 168.874 190.161,168.597 191.950,168.956 191.567 C 169.093 191.421,170.169 186.297,171.661 178.690 C 171.910 177.420,171.998 176.265,171.857 176.123 C 171.716 175.982,171.599 176.032,171.598 176.233 M176.000 191.555 C 175.230 191.693,177.660 191.808,181.400 191.811 C 185.329 191.815,187.524 191.697,186.600 191.532 C 184.684 191.190,177.966 191.204,176.000 191.555 M171.000 192.400 L 170.200 192.744 171.000 192.732 C 171.440 192.726,172.250 192.576,172.800 192.400 L 173.800 192.080 172.800 192.068 C 172.250 192.062,171.440 192.211,171.000 192.400 M189.600 192.400 C 190.150 192.576,190.960 192.726,191.400 192.732 L 192.200 192.744 191.400 192.400 C 190.960 192.211,190.150 192.062,189.600 192.068 L 188.600 192.080 189.600 192.400 M195.671 194.147 C 201.103 196.214,205.460 199.448,210.023 204.800 C 215.734 211.498,218.142 222.777,216.001 232.796 C 215.561 234.852,215.283 236.616,215.381 236.715 C 215.480 236.814,215.676 236.378,215.816 235.747 C 215.957 235.116,216.230 234.060,216.423 233.400 C 221.005 217.722,211.053 198.993,195.158 193.385 C 191.857 192.220,192.287 192.860,195.671 194.147 "
          stroke="none" fill="#ac8ca0" fill-rule="evenodd"></path>
  </g>
</svg>
